<?xml version="1.0" standalone="yes"?>
<svg width="1198" height="700">
<path style="fill:#ffffff; stroke:none;" d="M0 0L0 700L1198 700L1198 0L0 0z"/>
<path style="fill:#c8cfd5; stroke:none;" d="M536 123L536 124L653 124L617 123L536 123z"/>
<path style="fill:#abb4bd; stroke:none;" d="M533 139L658 139C658 134.295 659.226 127.037 653.891 124.742C646.803 121.694 634.652 124 627 124L566 124C557.834 124 543.677 121.263 536.228 124.742C531.527 126.939 533 134.792 533 139z"/>
<path style="fill:#d2d6d7; stroke:none;" d="M532 128L532 139L463 139L463 203C494.533 203 524.072 214.812 550 232.076C558.361 237.643 567.19 251.329 576.326 254.49C585.505 257.666 600.29 255.18 609.996 254.995C617.275 254.857 620.974 248.848 625.911 244.184C633.242 237.258 641.588 231.362 650 225.836C672.724 210.909 701.002 203 728 203L728 139L659 139L659 129L658 129L658 139L533 139L532 128M323 178C336.708 187.92 348.285 201.352 360.96 212.561C365.095 216.218 370.328 223.734 376 224.748C382.558 225.921 392.801 216.719 398.961 214.455C418.048 207.439 436.664 203 457 203L457 139C411.179 139 350.4 130.599 323 178z"/>
<path style="fill:#abb4bb; stroke:none;" d="M457 139L457 203C436.208 203 417.537 207.411 397.985 214.455C392.147 216.559 382.572 225.224 376.424 224.493C371.171 223.868 365.613 215.951 361.907 212.561C349.817 201.505 335.239 190.787 325 178C316.82 182.31 324.431 188.644 328.961 192.816C339.225 202.27 350.024 211.249 360 221C363.723 224.639 369.729 232.388 375.015 233.619C381.928 235.229 397.144 222.69 404 219.923C422.872 212.307 446.566 206.777 467 209.286C492.922 212.47 517.838 219.431 540 233.698C548.404 239.109 555.826 245.068 563.003 252C567.411 256.258 571.484 261.699 578 261.981C588.489 262.435 608.035 265.504 617.675 261.4C622.559 259.322 627.172 252.73 630.961 249.093C637.719 242.604 645.263 237.269 653 232.028C677.299 215.569 706.257 210 735 210L735 139L728 139L728 203C701.025 203 672.855 210.371 650 225.178C641.203 230.878 632.684 237.074 624.961 244.184C619.871 248.87 616.429 254.855 608.999 254.995C600.063 255.164 584.497 257.886 576.326 254.157C570.293 251.404 564.951 243.323 559.907 238.906C551.306 231.374 540.984 225.296 531 219.774C510.867 208.64 485.868 203 463 203L463 139L457 139z"/>
<path style="fill:#d2d6d7; stroke:none;" d="M735 139L735 210C706.581 210 678.409 215.016 654 230.698C644.699 236.674 635.936 243.301 628 251.011C624.07 254.829 619.804 261.424 613.985 261.941C603.568 262.868 584.826 264.989 575.015 261.4C566.644 258.339 559.834 247.407 552.816 241.883C537.549 229.868 518.745 220.295 500 215.158C470.194 206.99 442.523 208.418 413 216.488C404.457 218.824 395.649 222.637 388 227.09C384.775 228.967 379.418 234.068 375.428 233.363C369.727 232.356 362.946 222.808 359 219.039C347.725 208.272 333.032 190.544 319 184C304.945 205.868 306 230.082 306 255L306 355L338 355L338 362L306 362L306.151 421C306.151 471.788 297.706 528.428 345 562.074C352.076 567.108 360.684 571.741 369 574.384C396.144 583.011 427.901 579 456 579L456 501C403.84 496.849 365.194 455.493 350.239 408.17C341.957 381.962 335.433 359.15 341.245 331.09C352.42 277.145 408.53 230.619 465 237.285C484.014 239.53 502.359 243.932 519 253.988C526.988 258.816 533.344 265.969 541.089 271.019C567.762 288.412 594.476 321.655 596 355L611 355C611 340.154 613.112 317.895 623 306C623.738 297.257 633.402 287.234 638.711 280.59C659.327 254.793 690.553 240.26 723 237.17C734.838 236.042 749.002 242.22 760 239C766.024 247.476 785.948 250.402 795 256.622C829.23 280.142 864.583 311.631 869 356L885 356L885 296C885 245.72 892.511 190.585 846.714 156.786C839.867 151.732 832.118 147.286 824 144.597C795.836 135.269 764.298 139 735 139z"/>
<path style="fill:#aab4bd; stroke:none;" d="M591.429 168.859C580.303 174.089 587.924 192.15 599.696 186.656C610.684 181.528 602.396 163.703 591.429 168.859z"/>
<path style="fill:#5173f1; stroke:none;" d="M810 172.468C768.874 180.16 780.693 243.124 822 235.381C861.928 227.897 849.724 165.037 810 172.468z"/>
<path style="fill:#9fa9da; stroke:none;" d="M783 200L783 207L784 207L783 200z"/>
<path style="fill:#91a6e9; stroke:none;" d="M847 200L847 209L848 209L847 200z"/>
<path style="fill:#a1b6e5; stroke:none;" d="M810 236L810 237L818 237L810 236z"/>
<path style="fill:#e3e7ea; stroke:none;" d="M448 237.424C423.698 240.654 402.005 247.983 382.46 263.325C371.627 271.828 362.564 283.258 355.541 295C305.343 378.925 375.384 487.702 473 475.714C489.992 473.627 506.381 467.671 521 458.796C576.392 425.166 594.17 347.598 559.456 293C544.696 269.785 523.318 254.027 498 244.189C482.695 238.242 464.48 235.234 448 237.424M623 306C616.178 311.433 614.179 326.829 612.612 335C606.334 367.733 615.589 403.528 635.475 430C686.817 498.344 798.227 488.505 836.731 412C843.492 398.565 847.689 383.97 849 369C851.218 343.668 846.905 320.516 834.691 298C825.434 280.933 810.072 264.364 793 254.796C783.198 249.302 768.032 246.482 760 239C748.691 241.599 734.965 236.27 723 237.09C690.772 239.297 659.101 254.43 638.711 279.754C633.21 286.587 623.195 296.861 623 306z"/>
<path style="fill:#9fa2a9; stroke:none;" d="M448 258.439C429.429 261.332 411.777 267.011 397.035 279.117C334.692 330.312 355.57 433.021 435 452.873C446.442 455.733 460.275 456.388 472 454.561C514.831 447.885 551.427 413.031 555.829 369C561.738 309.908 511.057 248.615 448 258.439z"/>
<path style="fill:#9fa2ab; stroke:none;" d="M722 258.424C704.997 260.663 688.77 265.069 674.576 275.17C609.473 321.498 622.532 428.77 702 451.703C714.941 455.437 729.589 456.361 743 454.714C756.924 453.004 771.147 447.992 783 440.456C853.618 395.557 838.105 284.525 757 262.012C746.027 258.965 733.359 256.928 722 258.424z"/>
<path style="fill:#31343d; stroke:none;" d="M446 264L446 265L465 265L446 264z"/>
<path style="fill:#70727f; stroke:none;" d="M465 264L465 265L470 265L465 264z"/>
<path style="fill:#5e616a; stroke:none;" d="M718 264L718 265L722 265L718 264z"/>
<path style="fill:#161622; stroke:none;" d="M722 264.424C706.689 266.459 691.863 270.471 679 279.439C629.146 314.198 623.844 387.257 670 427.816C680.286 436.854 693.069 442.602 706 446.653C717.383 450.219 732.192 450.249 744 448.711C755.894 447.161 767.666 442.52 778 436.572C848.436 396.027 831.013 282.967 751 266.601C741.343 264.626 731.881 263.111 722 264.424M442 265.464C428.948 267.75 416.975 272.349 406 279.888C341.533 324.172 358.845 428.706 436 447.251C447.177 449.937 461.646 450.384 473 448.56C485.223 446.597 497.525 441.681 508 435.186C518.099 428.924 527.598 419.941 534.138 410C577.999 343.334 523.277 251.228 442 265.464z"/>
<path style="fill:#5f616d; stroke:none;" d="M704.667 267.333L705.333 267.667L704.667 267.333z"/>
<path style="fill:#9498a1; stroke:none;" d="M542 271C547.069 279.904 555.468 286.94 560.663 296C578.532 327.165 581.872 360.869 570.971 395C552.068 454.19 483.465 490.718 424 471.784C391.174 461.332 368.599 438.75 351 410L350 410C354.739 430.473 366.971 448.616 380.845 463.985C435.646 524.691 541.238 509.742 580.997 440C605.472 397.068 603.577 342.148 574.424 302C566.211 290.69 554.906 277.01 542 271M815 271C819.997 281.717 830.167 290.2 835.742 301C852.003 332.502 854.17 367.821 841.255 401C817.371 462.354 744.129 492.877 684 467.127C657.378 455.727 638.469 435.534 624 411L623 411C639.059 488.19 733.649 521.56 800 489.511C844.67 467.934 870 422.595 870 374C870 353.653 865.5 335.198 856.244 317C847.037 298.899 832.326 281.797 815 271z"/>
<path style="fill:#abb4bd; stroke:none;" d="M307 422L306 362L338 362L338 355L306 355L306 296C301.354 296 293.822 294.765 291.603 300.109C288.668 307.181 291 319.383 291 327L291 388C291 396.434 288.388 410.093 291.742 417.891C294.133 423.449 302.123 422 307 422z"/>
<path style="fill:#aab4bd; stroke:none;" d="M885 296L885 356L869 356L870 362L885 362L885 422C890.272 422 896.869 422.963 899.258 416.981C902.192 409.632 900 397.85 900 390L900 330C900 321.479 902.568 307.97 899.258 300.059C896.987 294.632 889.758 296 885 296z"/>
<path style="fill:#7d7e83; stroke:none;" d="M478.667 299.333L479.333 299.667L478.667 299.333z"/>
<path style="fill:#d0d1d5; stroke:none;" d="M480 299L480 300L485 300L480 299z"/>
<path style="fill:#8d8e93; stroke:none;" d="M485 299L485 300L488 300L485 299z"/>
<path style="fill:#cfd0d4; stroke:none;" d="M751 299L751 300L758 300L751 299z"/>
<path style="fill:#898991; stroke:none;" d="M758.667 299.333L759.333 299.667L758.667 299.333z"/>
<path style="fill:#ffffff; stroke:none;" d="M476 300.653C452.378 308.059 465.948 345.501 490 337.532C514.387 329.451 500.517 292.966 476 300.653M748 300.703C724.34 308.718 738.955 345.982 763 337.387C786.68 328.922 772.116 292.533 748 300.703z"/>
<path style="fill:#d1d9dc; stroke:none;" d="M290 301L290 417L291 417L291 336L290 301z"/>
<path style="fill:#8c8c94; stroke:none;" d="M492 301L493 302L492 301z"/>
<path style="fill:#7d7d85; stroke:none;" d="M494 302L495 303L494 302z"/>
<path style="fill:#818287; stroke:none;" d="M744 302L745 303L744 302z"/>
<path style="fill:#9c9ca4; stroke:none;" d="M766 302L767 303L766 302z"/>
<path style="fill:#e4e9ef; stroke:none;" d="M900 302L900 417L901 417L901 337L900 302z"/>
<path style="fill:#98999e; stroke:none;" d="M495 303L496 304L495 303z"/>
<path style="fill:#7a797f; stroke:none;" d="M468 305L469 306L468 305z"/>
<path style="fill:#99989e; stroke:none;" d="M498 306L499 307L498 306z"/>
<path style="fill:#9e9da5; stroke:none;" d="M739 307L740 308L739 307z"/>
<path style="fill:#bcbbc1; stroke:none;" d="M737.333 310.667L737.667 311.333L737.333 310.667z"/>
<path style="fill:#7f7e86; stroke:none;" d="M773 310L774 311L773 310z"/>
<path style="fill:#3f4551; stroke:none;" d="M497 334L496 334C478.878 344.804 460.277 332.128 464 312C450.167 312 438.177 313.337 427.514 323.27C404.63 344.586 409.671 385.052 439 398.481C477.578 416.146 520.005 370.658 497 334M769 334L768 334C750.795 346.142 733.659 330.939 736 312C720.188 312 706.777 314.453 695.823 327.17C675.355 350.929 686.035 390.305 716 400.101C752.407 412.003 794.171 367.685 769 334z"/>
<path style="fill:#9b9ba3; stroke:none;" d="M736.333 312.667L736.667 313.333L736.333 312.667z"/>
<path style="fill:#909196; stroke:none;" d="M774.333 312.667L774.667 313.333L774.333 312.667z"/>
<path style="fill:#898a8f; stroke:none;" d="M502.333 313.667L502.667 314.333L502.333 313.667z"/>
<path style="fill:#a8acb7; stroke:none;" d="M463 314L463 322L464 322L463 314z"/>
<path style="fill:#7f838e; stroke:none;" d="M735 315L735 321L736 321L735 315z"/>
<path style="fill:#727378; stroke:none;" d="M775 315L775 321L776 321L775 315z"/>
<path style="fill:#83838b; stroke:none;" d="M502.333 322.667L502.667 323.333L502.333 322.667z"/>
<path style="fill:#9e9ea6; stroke:none;" d="M736.333 323.667L736.667 324.333L736.333 323.667z"/>
<path style="fill:#97979f; stroke:none;" d="M774.333 323.667L774.667 324.333L774.333 323.667z"/>
<path style="fill:#acacb4; stroke:none;" d="M464.333 324.667L464.667 325.333L464.333 324.667z"/>
<path style="fill:#9a9aa2; stroke:none;" d="M737.333 326.667L737.667 327.333L737.333 326.667z"/>
<path style="fill:#8c8c94; stroke:none;" d="M773.333 326.667L773.667 327.333L773.333 326.667z"/>
<path style="fill:#565864; stroke:none;" d="M546.333 328.667L546.667 329.333L546.333 328.667z"/>
<path style="fill:#7a7a82; stroke:none;" d="M772 329L773 330L772 329z"/>
<path style="fill:#5c5e6a; stroke:none;" d="M819.333 330.667L819.667 331.333L819.333 330.667z"/>
<path style="fill:#a0a0a8; stroke:none;" d="M498 331L499 332L498 331z"/>
<path style="fill:#646672; stroke:none;" d="M547.333 331.667L547.667 332.333L547.333 331.667z"/>
<path style="fill:#6c6e7a; stroke:none;" d="M367 335L367 338L368 338L367 335z"/>
<path style="fill:#bdc5c8; stroke:none;" d="M475.667 337.333L476.333 337.667L475.667 337.333z"/>
<path style="fill:#858a8e; stroke:none;" d="M486.667 338.333L487.333 338.667L486.667 338.333z"/>
<path style="fill:#8d949c; stroke:none;" d="M750.667 338.333L751.333 338.667L750.667 338.333z"/>
<path style="fill:#92979b; stroke:none;" d="M758.667 338.333L759.333 338.667L758.667 338.333z"/>
<path style="fill:#3a3c48; stroke:none;" d="M821 338L821 342L822 342L821 338z"/>
<path style="fill:#71737f; stroke:none;" d="M638 342L638 346L639 346L638 342z"/>
<path style="fill:#4c4e5b; stroke:none;" d="M550 346L550 365L551 365L550 346z"/>
<path style="fill:#c7ccd2; stroke:none;" d="M556 346L556 363L557 363L556 346z"/>
<path style="fill:#b3b8be; stroke:none;" d="M577 346L577 364L578 364L577 346z"/>
<path style="fill:#4a4c58; stroke:none;" d="M365 349L365 363L366 363L365 349z"/>
<path style="fill:#727480; stroke:none;" d="M637 350L637 363L638 363L637 350z"/>
<path style="fill:#aab3bc; stroke:none;" d="M597 355L597 365L598 365L598 362L611 362L611 355L597 355z"/>
<path style="fill:#d2d6d7; stroke:none;" d="M598 362C598 383.581 596.513 403.677 588.536 424C568.478 475.105 515.881 503 463 503L463 579L728 579L728 501C674.297 498.694 638.693 452.977 622.407 407C617.128 392.1 611.692 378.121 611 362L598 362M870 362C870.469 384.736 868.769 405.67 859.572 427C838.192 476.581 787.165 503 735 503L735 579C762.859 579 794.072 582.935 821 574.558C828.758 572.145 836.243 567.586 843 563.177C891.586 531.481 885 475.775 885 425L885 362L870 362z"/>
<path style="fill:#6b6d79; stroke:none;" d="M822 365L822 370L823 370L822 365z"/>
<path style="fill:#b8bbc0; stroke:none;" d="M870 368L870 384L871 384L870 368z"/>
<path style="fill:#6b6d79; stroke:none;" d="M549 369L549 373L550 373L549 369z"/>
<path style="fill:#5d5f6b; stroke:none;" d="M546.333 383.667L546.667 384.333L546.333 383.667z"/>
<path style="fill:#4b4d59; stroke:none;" d="M696.667 443.333L697.333 443.667L696.667 443.333z"/>
<path style="fill:#555763; stroke:none;" d="M484.667 445.333L485.333 445.667L484.667 445.333z"/>
<path style="fill:#4a4e59; stroke:none;" d="M480.667 446.333L481.333 446.667L480.667 446.333z"/>
<path style="fill:#434552; stroke:none;" d="M441 448L441 449L445 449L441 448z"/>
<path style="fill:#3d3f4b; stroke:none;" d="M449 449L449 450L465 450L449 449z"/>
<path style="fill:#484a56; stroke:none;" d="M722 449L722 450L738 450L722 449z"/>
<path style="fill:#c7cad1; stroke:none;" d="M448 455L448 456L467 456L448 455z"/>
<path style="fill:#c5c8cf; stroke:none;" d="M722 455L722 456L737 456L722 455z"/>
<path style="fill:#b8bdc3; stroke:none;" d="M451 476L451 477L464 477L451 476M722 476L722 477L739 477L722 476z"/>
<path style="fill:#e7ecf2; stroke:none;" d="M563 481.519C543.534 485.773 548 509.231 548 524C548 532.119 547.432 540.218 553.519 546.532C565.033 558.477 592.791 553 608 553C613.796 553 620.329 553.819 626 552.468C646.232 547.648 642 525.764 642 510C642 502.37 643.089 493.383 637.316 487.39C631.357 481.205 623.954 481 616 481C599.327 481 579.288 477.959 563 481.519z"/>
<path style="fill:#b3bac0; stroke:none;" d="M564 488L564 489L626 489L606 488L564 488z"/>
<path style="fill:#9ea2ab; stroke:none;" d="M555 502L635 502C634.76 496.843 633.315 491.81 627.995 489.742C615.333 484.821 593.586 489 580 489C574.538 489 567.168 487.735 562.005 489.742C556.685 491.81 555.24 496.843 555 502z"/>
<path style="fill:#abb3c0; stroke:none;" d="M456 502L456 579L463 579L463 503L475 503L456 502z"/>
<path style="fill:#b6bac3; stroke:none;" d="M555 502L555 503L635 503L610 502L555 502z"/>
<path style="fill:#abb6bc; stroke:none;" d="M728 502L728 579L735 579L735 503L749 503L728 502z"/>
<path style="fill:#abb4bd; stroke:none;" d="M370 507.526C358.242 509.419 360.531 528.476 372.014 526.641C384.437 524.656 383.058 505.425 370 507.526M815.015 508.032C803.63 513.764 811.727 531.276 822.985 525.681C834.406 520.005 825.97 502.517 815.015 508.032z"/>
<path style="fill:#ccd1d7; stroke:none;" d="M555 509L555 510L635 510L610 509L555 509z"/>
<path style="fill:#9ea2ab; stroke:none;" d="M555 510L555 524L635 524L635 510L555 510z"/>
<path style="fill:#d2d7dd; stroke:none;" d="M555 524L555 525L635 525L610 524L555 524z"/>
<path style="fill:#9da4aa; stroke:none;" d="M555 531C555.116 535.936 556.034 541.714 561.105 543.991C566.174 546.266 573.564 545 579 545C592.644 545 615.391 549.397 627.985 544.142C633.54 541.824 634.872 536.429 635 531L555 531z"/>
<path style="fill:#b7bfc2; stroke:none;" d="M566 545L566 546L626 546L607 545L566 545z"/>
</svg>
