<?xml version="1.0" standalone="no"?>
<!DOCTYPE svg PUBLIC "-//W3C//DTD SVG 20010904//EN"
 "http://www.w3.org/TR/2001/REC-SVG-20010904/DTD/svg10.dtd">
<svg version="1.0" xmlns="http://www.w3.org/2000/svg"
 width="1198.000000pt" height="700.000000pt" viewBox="0 0 1198.000000 700.000000"
 preserveAspectRatio="xMidYMid meet">

<g transform="translate(0.000000,700.000000) scale(0.100000,-0.100000)"
fill="#000000" stroke="none">
<path d="M8073 5260 c-81 -19 -168 -95 -206 -179 -28 -61 -29 -177 -4 -244 11
-28 23 -44 29 -41 7 4 8 2 4 -4 -20 -33 128 -134 217 -147 54 -8 140 2 132 16
-3 5 1 6 9 3 22 -8 74 23 128 77 32 32 48 55 44 65 -3 8 -2 13 3 9 12 -6 35
61 26 75 -3 5 -1 10 6 10 17 0 5 139 -16 181 -28 55 -65 100 -77 93 -6 -4 -8
-3 -5 3 4 6 -1 17 -11 25 -26 24 -102 59 -112 53 -5 -3 -11 -1 -15 5 -7 11
-104 12 -152 0z"/>
<path d="M4390 4341 c-319 -69 -583 -303 -687 -606 -52 -152 -65 -306 -38
-458 81 -467 498 -801 965 -773 402 23 728 286 846 681 23 78 27 109 28 235 1
106 -4 164 -16 216 -81 332 -328 593 -653 690 -122 36 -319 43 -445 15z m537
-358 c21 -11 52 -39 68 -62 26 -37 30 -51 30 -111 0 -60 -4 -74 -30 -112 -44
-62 -104 -91 -178 -85 -78 7 -126 40 -161 108 -31 62 -33 109 -7 164 51 109
172 152 278 98z"/>
<path d="M7110 4341 c-522 -111 -849 -656 -698 -1166 48 -165 127 -293 256
-416 125 -120 259 -194 428 -236 107 -27 324 -24 433 6 334 89 583 338 677
677 22 80 30 276 14 372 -33 209 -126 381 -287 532 -221 207 -528 293 -823
231z m518 -346 c84 -36 126 -106 120 -201 -5 -76 -38 -126 -108 -161 -110 -56
-244 5 -275 125 -41 158 115 298 263 237z"/>
</g>
</svg>
