<?xml version="1.0" standalone="no"?>
<!DOCTYPE svg PUBLIC "-//W3C//DTD SVG 20010904//EN"
 "http://www.w3.org/TR/2001/REC-SVG-20010904/DTD/svg10.dtd">
<svg version="1.0" xmlns="http://www.w3.org/2000/svg"
 width="668.000000pt" height="694.000000pt" viewBox="0 0 668.000000 694.000000"
 preserveAspectRatio="xMidYMid meet">

<g transform="translate(0.000000,694.000000) scale(0.100000,-0.100000)"
fill="#000000" stroke="none">
<path d="M5457 5253 c-16 -3 -25 -9 -21 -15 4 -7 2 -8 -5 -4 -25 16 -139 -72
-133 -103 2 -7 -1 -10 -7 -7 -15 10 -43 -38 -35 -60 4 -14 3 -16 -4 -5 -7 10
-13 0 -21 -38 -14 -68 -15 -142 -1 -121 8 11 9 9 5 -11 -7 -29 12 -82 41 -116
11 -11 26 -31 34 -43 20 -29 96 -73 111 -64 7 4 9 3 5 -4 -8 -14 54 -32 110
-32 124 0 260 97 297 211 21 69 22 131 1 171 -9 16 -11 27 -4 23 17 -10 -16
63 -46 102 -14 18 -30 30 -36 27 -6 -4 -8 -3 -5 3 13 21 -80 77 -109 66 -12
-4 -15 -3 -10 5 4 7 6 12 4 12 -27 5 -150 7 -171 3z"/>
<path d="M1805 4340 c-305 -48 -573 -251 -706 -534 -67 -144 -83 -217 -83
-396 0 -132 3 -167 23 -235 91 -322 320 -562 630 -659 324 -102 676 -17 921
224 158 154 238 306 275 519 83 470 -220 935 -690 1061 -92 24 -276 34 -370
20z m487 -377 c169 -92 120 -347 -71 -370 -182 -21 -297 188 -178 324 66 75
162 93 249 46z"/>
<path d="M4545 4339 c-146 -21 -295 -84 -422 -178 -166 -124 -279 -286 -339
-488 -22 -73 -27 -113 -31 -238 -4 -137 -2 -159 21 -250 88 -341 344 -597 686
-687 121 -31 320 -31 440 1 332 88 588 336 681 661 27 96 37 311 19 414 -45
259 -217 508 -445 645 -171 103 -406 149 -610 120z m470 -368 c78 -36 115 -95
115 -182 0 -216 -291 -274 -381 -76 -23 53 -24 101 0 152 50 109 163 154 266
106z"/>
</g>
</svg>
