<?xml version="1.0" standalone="no"?>
<!DOCTYPE svg PUBLIC "-//W3C//DTD SVG 20010904//EN"
 "http://www.w3.org/TR/2001/REC-SVG-20010904/DTD/svg10.dtd">
<svg version="1.0" xmlns="http://www.w3.org/2000/svg"
 width="490.000000pt" height="509.000000pt" viewBox="0 0 490.000000 509.000000"
 preserveAspectRatio="xMidYMid meet">

<g transform="translate(0.000000,509.000000) scale(0.100000,-0.100000)"
fill="#000000" stroke="none">
<path d="M3988 3843 c-111 -32 -181 -162 -149 -276 18 -63 80 -132 138 -151
110 -38 211 -6 273 85 32 47 35 58 35 123 -1 81 -24 136 -74 179 -54 45 -148
62 -223 40z"/>
<path d="M1280 3174 c-36 -7 -108 -35 -160 -60 -230 -114 -380 -356 -380 -614
0 -109 23 -203 75 -305 131 -260 403 -411 682 -376 355 43 613 330 613 682 0
190 -63 342 -200 481 -73 74 -100 93 -180 132 -151 73 -299 93 -450 60z m377
-255 c67 -25 111 -99 98 -165 -8 -45 -57 -100 -101 -114 -100 -33 -209 62
-190 165 12 62 82 124 143 125 12 0 34 -5 50 -11z"/>
<path d="M3318 3180 c-144 -24 -255 -84 -369 -200 -70 -70 -95 -104 -128 -171
-58 -121 -74 -199 -69 -339 8 -190 63 -314 203 -455 317 -319 834 -251 1070
142 116 192 123 437 19 651 -38 79 -61 110 -128 177 -66 67 -99 91 -176 129
-140 69 -277 90 -422 66z m381 -277 c85 -64 86 -181 1 -245 -89 -66 -230 8
-230 122 0 54 44 116 100 139 34 15 98 6 129 -16z"/>
</g>
</svg>
